<svg width="175" height="45" viewBox="0 0 175 45" fill="none" xmlns="http://www.w3.org/2000/svg">
<path d="M6.696 34.412C5.208 34.412 3.996 34.064 3.06 33.368C2.124 32.696 1.44 31.844 1.008 30.812C0.576 29.756 0.36 28.7 0.36 27.644C0.36 26.54 0.624 25.436 1.152 24.332C1.704 23.204 2.424 22.268 3.312 21.524C2.352 20.276 1.872 18.836 1.872 17.204C1.872 16.148 2.1 15.104 2.556 14.072C3.012 13.04 3.696 12.128 4.608 11.336C5.544 10.52 6.528 9.944 7.56 9.608C8.616 9.272 9.696 9.104 10.8 9.104C12.288 9.104 13.788 9.332 15.3 9.788C16.812 10.244 18.288 10.796 19.728 11.444C21.168 12.068 22.524 12.644 23.796 13.172C24.108 12.86 24.42 12.572 24.732 12.308C25.044 12.044 25.368 11.792 25.704 11.552C26.448 11.048 27.42 10.796 28.62 10.796C29.364 10.796 30.048 10.94 30.672 11.228C31.296 11.492 31.656 11.948 31.752 12.596V12.704C31.752 12.968 31.656 13.1 31.464 13.1C31.272 13.1 31.176 12.98 31.176 12.74C31.152 12.38 30.924 12.068 30.492 11.804C30.06 11.516 29.532 11.372 28.908 11.372C28.5 11.372 28.068 11.444 27.612 11.588C27.156 11.708 26.688 11.936 26.208 12.272C25.704 12.632 25.224 13.064 24.768 13.568C25.896 14 27.024 14.372 28.152 14.684C29.304 14.972 30.444 15.116 31.572 15.116C31.74 15.116 31.908 15.116 32.076 15.116C32.244 15.116 32.412 15.104 32.58 15.08C33.204 15.032 33.888 14.864 34.632 14.576C35.4 14.288 36.06 13.952 36.612 13.568C37.188 13.184 37.5 12.824 37.548 12.488C37.596 12.224 37.692 12.092 37.836 12.092C38.052 12.092 38.136 12.272 38.088 12.632C38.016 13.064 37.752 13.472 37.296 13.856C36.864 14.24 36.336 14.588 35.712 14.9C35.112 15.188 34.5 15.428 33.876 15.62C33.252 15.812 32.724 15.932 32.292 15.98C32.076 16.004 31.86 16.028 31.644 16.052C31.428 16.052 31.2 16.052 30.96 16.052C29.712 16.052 28.5 15.92 27.324 15.656C26.148 15.392 24.984 15.08 23.832 14.72C23.112 15.728 22.488 16.856 21.96 18.104C21.456 19.352 20.976 20.648 20.52 21.992C20.088 23.312 19.584 24.608 19.008 25.88C17.832 28.616 16.212 30.716 14.148 32.18C12.084 33.668 9.6 34.412 6.696 34.412ZM6.876 33.728C8.34 33.728 9.636 33.284 10.764 32.396C11.916 31.532 12.972 30.404 13.932 29.012C14.892 27.596 15.816 26.084 16.704 24.476C17.592 22.844 18.504 21.128 19.44 19.328C20.4 17.504 21.504 15.848 22.752 14.36C21.672 13.976 20.496 13.556 19.224 13.1C17.952 12.644 16.644 12.26 15.3 11.948C13.98 11.612 12.684 11.444 11.412 11.444C10.596 11.444 9.804 11.528 9.036 11.696C8.292 11.864 7.584 12.152 6.912 12.56C5.736 13.256 4.872 14.096 4.32 15.08C3.768 16.064 3.492 17.048 3.492 18.032C3.492 18.536 3.552 19.028 3.672 19.508C3.816 19.988 4.008 20.432 4.248 20.84C4.728 20.552 5.244 20.324 5.796 20.156C6.348 19.988 6.924 19.904 7.524 19.904C8.82 19.904 9.864 20.18 10.656 20.732C11.472 21.26 12.072 21.908 12.456 22.676C13.008 22.34 13.452 21.92 13.788 21.416C14.148 20.888 14.364 20.276 14.436 19.58C14.484 19.292 14.592 19.148 14.76 19.148C14.952 19.148 15.024 19.304 14.976 19.616C14.88 20.504 14.628 21.248 14.22 21.848C13.812 22.448 13.296 22.916 12.672 23.252C12.768 23.492 12.828 23.744 12.852 24.008C12.9 24.248 12.924 24.5 12.924 24.764C12.924 25.652 12.744 26.432 12.384 27.104C12.048 27.776 11.604 28.328 11.052 28.76C10.524 29.168 9.96 29.48 9.36 29.696C8.784 29.912 8.268 30.02 7.812 30.02C7.116 30.02 6.468 29.816 5.868 29.408C5.292 28.976 5.004 28.472 5.004 27.896C5.004 27.392 5.124 27.14 5.364 27.14C5.46 27.14 5.532 27.188 5.58 27.284C5.628 27.38 5.628 27.512 5.58 27.68C5.532 27.824 5.592 28.052 5.76 28.364C5.952 28.652 6.228 28.916 6.588 29.156C6.948 29.396 7.368 29.516 7.848 29.516C8.304 29.516 8.82 29.348 9.396 29.012C9.996 28.652 10.524 28.148 10.98 27.5C11.46 26.852 11.736 26.084 11.808 25.196C11.832 25.1 11.844 25.016 11.844 24.944C11.844 24.848 11.844 24.752 11.844 24.656C11.844 24.32 11.808 23.996 11.736 23.684C11.328 23.828 10.896 23.936 10.44 24.008C9.984 24.056 9.516 24.08 9.036 24.08C8.004 24.08 7.068 23.924 6.228 23.612C5.388 23.3 4.668 22.88 4.068 22.352C3.516 23.048 3.096 23.888 2.808 24.872C2.52 25.832 2.376 26.792 2.376 27.752C2.376 28.712 2.532 29.648 2.844 30.56C3.156 31.472 3.636 32.228 4.284 32.828C4.956 33.428 5.82 33.728 6.876 33.728ZM9.036 23.54C9.972 23.54 10.812 23.396 11.556 23.108C11.292 22.412 10.836 21.824 10.188 21.344C9.54 20.84 8.652 20.588 7.524 20.588C6.996 20.588 6.492 20.684 6.012 20.876C5.556 21.044 5.148 21.296 4.788 21.632C5.268 22.208 5.868 22.676 6.588 23.036C7.308 23.372 8.124 23.54 9.036 23.54ZM32.1455 32.216C31.4735 32.216 30.9935 31.952 30.7055 31.424C30.4175 30.896 30.2735 30.284 30.2735 29.588C30.2735 29.468 30.2735 29.336 30.2735 29.192C30.2735 29.048 30.2855 28.916 30.3095 28.796C29.8535 29.612 29.2655 30.38 28.5455 31.1C27.8255 31.82 26.9375 32.18 25.8815 32.18C25.1615 32.18 24.5495 31.916 24.0455 31.388C23.5655 30.86 23.3255 30.056 23.3255 28.976C23.3255 28.112 23.5655 27.032 24.0455 25.736C24.3095 25.112 24.6935 24.476 25.1975 23.828C25.7015 23.18 26.3135 22.64 27.0335 22.208C27.7535 21.752 28.5575 21.524 29.4455 21.524C30.4055 21.524 31.0775 21.704 31.4615 22.064C31.8455 22.424 32.0855 22.7 32.1815 22.892C32.1815 22.916 32.1815 22.94 32.1815 22.964C32.2055 22.964 32.2175 22.976 32.2175 23C32.2175 23.216 32.0855 23.324 31.8215 23.324C31.7015 23.324 31.5815 23.264 31.4615 23.144C31.1735 22.808 30.8855 22.568 30.5975 22.424C30.3095 22.28 30.0335 22.208 29.7695 22.208C29.2175 22.208 28.7015 22.448 28.2215 22.928C27.7415 23.384 27.3095 23.936 26.9255 24.584C26.5655 25.208 26.2655 25.796 26.0255 26.348C25.6895 27.116 25.4375 27.812 25.2695 28.436C25.1255 29.036 25.0535 29.54 25.0535 29.948C25.0535 31.028 25.4255 31.568 26.1695 31.568C26.6975 31.568 27.3215 31.232 28.0415 30.56C28.7615 29.888 29.4455 28.892 30.0935 27.572C30.6695 26.42 31.1855 25.4 31.6415 24.512C32.0975 23.6 32.4935 22.808 32.8295 22.136C32.9015 21.968 33.0815 21.848 33.3695 21.776C33.6575 21.68 33.9455 21.632 34.2335 21.632C34.4975 21.632 34.7375 21.68 34.9535 21.776C35.1695 21.848 35.2775 21.98 35.2775 22.172C35.2775 22.268 35.2175 22.4 35.0975 22.568C34.8095 22.976 34.4375 23.576 33.9815 24.368C33.5495 25.16 33.1415 25.988 32.7575 26.852C32.3975 27.716 32.1575 28.484 32.0375 29.156C31.9655 29.516 31.9295 29.84 31.9295 30.128C31.9295 30.896 32.1935 31.28 32.7215 31.28C32.8895 31.28 33.1535 31.22 33.5135 31.1C34.1855 30.812 34.8695 30.368 35.5655 29.768C36.2855 29.144 36.9575 28.46 37.5815 27.716C38.2295 26.972 38.7695 26.276 39.2015 25.628C39.4175 25.316 39.5855 25.16 39.7055 25.16C39.7775 25.16 39.8135 25.22 39.8135 25.34C39.8135 25.532 39.7175 25.772 39.5255 26.06C39.0935 26.708 38.5415 27.428 37.8695 28.22C37.2215 29.012 36.5135 29.744 35.7455 30.416C35.0015 31.088 34.2695 31.58 33.5495 31.892C33.0215 32.108 32.5535 32.216 32.1455 32.216ZM41.1469 32.216C40.4029 32.216 39.8749 32 39.5629 31.568C39.2749 31.112 39.1309 30.56 39.1309 29.912C39.1309 29.288 39.2149 28.64 39.3829 27.968C39.5749 27.272 39.7909 26.624 40.0309 26.024C40.2709 25.424 40.4629 24.956 40.6069 24.62C40.2949 25.076 39.9709 25.532 39.6349 25.988C39.3229 26.444 38.9749 26.888 38.5909 27.32C38.3749 27.56 38.1709 27.68 37.9789 27.68C37.8829 27.68 37.8349 27.632 37.8349 27.536C37.8349 27.44 37.8949 27.32 38.0149 27.176C38.8549 26.096 39.5509 25.1 40.1029 24.188C40.6789 23.276 41.1109 22.592 41.3989 22.136C41.5909 21.8 41.9029 21.596 42.3349 21.524C42.7669 21.452 43.1389 21.428 43.4509 21.452C43.5469 21.452 43.6549 21.464 43.7749 21.488C43.8949 21.488 44.0749 21.488 44.3149 21.488C43.8109 22.352 43.3669 23.288 42.9829 24.296C42.5989 25.304 42.1909 26.264 41.7589 27.176C41.3989 27.92 41.1349 28.568 40.9669 29.12C40.7989 29.672 40.7149 30.128 40.7149 30.488C40.7149 31.136 40.9429 31.46 41.3989 31.46C41.7589 31.46 42.2149 31.172 42.7669 30.596C43.3189 29.996 43.8829 29.252 44.4589 28.364C45.0349 27.476 45.5149 26.576 45.8989 25.664C46.1869 25.04 46.4629 24.404 46.7269 23.756C47.0149 23.108 47.2429 22.568 47.4109 22.136C47.5069 21.968 47.7349 21.848 48.0949 21.776C48.4789 21.68 48.8989 21.62 49.3549 21.596C49.8349 21.572 50.2669 21.56 50.6509 21.56C50.3389 21.848 49.9789 22.34 49.5709 23.036C49.1869 23.708 48.8029 24.476 48.4189 25.34C48.0589 26.204 47.7589 27.056 47.5189 27.896C47.2789 28.736 47.1589 29.456 47.1589 30.056C47.1589 30.152 47.1589 30.248 47.1589 30.344C47.1829 30.44 47.2069 30.536 47.2309 30.632C47.3509 31.064 47.6389 31.28 48.0949 31.28C48.2149 31.28 48.3349 31.268 48.4549 31.244C48.5989 31.22 48.7549 31.172 48.9229 31.1C49.5949 30.812 50.2909 30.38 51.0109 29.804C51.7309 29.228 52.4149 28.58 53.0629 27.86C53.7109 27.14 54.2509 26.456 54.6829 25.808C54.8989 25.496 55.0789 25.34 55.2229 25.34C55.2949 25.34 55.3309 25.388 55.3309 25.484C55.3309 25.676 55.2349 25.916 55.0429 26.204C54.6109 26.852 54.0709 27.56 53.4229 28.328C52.7989 29.096 52.1149 29.804 51.3709 30.452C50.6509 31.1 49.9309 31.58 49.2109 31.892C48.6829 32.108 48.1909 32.216 47.7349 32.216C46.8229 32.216 46.1269 31.856 45.6469 31.136C45.1909 30.392 45.0109 29.6 45.1069 28.76C44.5549 29.696 43.9429 30.512 43.2709 31.208C42.6229 31.88 41.9149 32.216 41.1469 32.216ZM51.4291 41.648C50.5411 41.432 50.0971 40.604 50.0971 39.164C50.0971 37.844 50.4571 36.08 51.1771 33.872C51.8971 31.688 52.8811 29.252 54.1291 26.564C54.4891 25.772 54.9571 24.776 55.5331 23.576C56.1091 22.376 56.7211 21.116 57.3691 19.796C58.0411 18.476 58.7011 17.24 59.3491 16.088C59.9971 14.936 60.5851 14.024 61.1131 13.352C61.5451 12.8 62.0371 12.38 62.5891 12.092C63.1411 11.804 63.6571 11.66 64.1371 11.66C64.6651 11.66 65.1091 11.816 65.4691 12.128C65.8291 12.44 66.0091 12.908 66.0091 13.532C66.0091 13.82 65.9611 14.144 65.8651 14.504C65.7691 14.864 65.6131 15.26 65.3971 15.692C64.8691 16.82 63.9211 18.212 62.5531 19.868C61.1851 21.524 59.3971 23.312 57.1891 25.232C56.7571 26.024 56.3491 26.828 55.9651 27.644C55.6051 28.46 55.2571 29.276 54.9211 30.092C55.0891 30.236 55.2691 30.428 55.4611 30.668L55.5691 30.776C55.6891 30.8 55.8211 30.824 55.9651 30.848C56.1091 30.848 56.2411 30.848 56.3611 30.848C57.7051 30.848 59.0611 30.392 60.4291 29.48C61.7971 28.568 62.9611 27.344 63.9211 25.808C64.0411 25.616 64.1611 25.52 64.2811 25.52C64.4011 25.52 64.4611 25.616 64.4611 25.808C64.4611 25.928 64.4251 26.048 64.3531 26.168C63.8251 26.984 63.1771 27.788 62.4091 28.58C61.6651 29.372 60.8371 30.056 59.9251 30.632C59.0131 31.184 58.0291 31.508 56.9731 31.604C56.8051 31.628 56.6491 31.64 56.5051 31.64C56.3851 31.64 56.2651 31.64 56.1451 31.64C56.3371 31.928 56.5051 32.336 56.6491 32.864C56.8171 33.416 56.9011 34.04 56.9011 34.736C56.9011 35.312 56.8291 35.924 56.6851 36.572C56.3731 37.868 55.8571 38.9 55.1371 39.668C54.4411 40.46 53.7451 41 53.0491 41.288C52.3291 41.6 51.7891 41.72 51.4291 41.648ZM57.8371 23.648C58.8211 22.712 59.7451 21.752 60.6091 20.768C61.4971 19.76 62.2771 18.8 62.9491 17.888C63.6451 16.952 64.1851 16.124 64.5691 15.404C64.8331 14.9 65.0251 14.48 65.1451 14.144C65.2651 13.784 65.3251 13.496 65.3251 13.28C65.3251 12.968 65.2051 12.812 64.9651 12.812C64.7731 12.812 64.4971 12.956 64.1371 13.244C63.8011 13.508 63.4291 13.916 63.0211 14.468C62.0611 15.812 61.1491 17.288 60.2851 18.896C59.4211 20.504 58.6051 22.088 57.8371 23.648ZM51.3571 40.208C51.3571 40.856 51.5851 41.18 52.0411 41.18C52.4731 41.18 53.0251 40.808 53.6971 40.064C54.0331 39.704 54.3571 39.236 54.6691 38.66C54.9811 38.084 55.2571 37.376 55.4971 36.536C55.7371 35.744 55.8571 35 55.8571 34.304C55.8571 33.584 55.7731 32.984 55.6051 32.504C55.4371 32.048 55.3051 31.772 55.2091 31.676C54.8971 31.652 54.6091 31.58 54.3451 31.46C53.9371 32.468 53.5291 33.488 53.1211 34.52C52.7371 35.552 52.3891 36.512 52.0771 37.4C51.7651 38.288 51.5491 39.044 51.4291 39.668C51.4051 39.764 51.3931 39.86 51.3931 39.956C51.3691 40.052 51.3571 40.136 51.3571 40.208ZM68.6371 20.336C68.2771 20.336 68.0011 20.216 67.8091 19.976C67.6171 19.736 67.5211 19.46 67.5211 19.148C67.5211 18.812 67.6411 18.536 67.8811 18.32C68.1451 18.104 68.4211 17.996 68.7091 17.996C69.0691 17.996 69.3571 18.116 69.5731 18.356C69.7891 18.572 69.8971 18.836 69.8971 19.148C69.8971 19.46 69.7651 19.736 69.5011 19.976C69.2371 20.216 68.9491 20.336 68.6371 20.336ZM66.9091 32.612C66.0931 32.612 65.4451 32.312 64.9651 31.712C64.4851 31.088 64.2451 30.308 64.2451 29.372C64.2451 28.7 64.3651 28.016 64.6051 27.32C64.7251 26.936 64.8691 26.492 65.0371 25.988C65.2051 25.46 65.3611 25.004 65.5051 24.62C65.1931 25.076 64.8691 25.532 64.5331 25.988C64.2211 26.444 63.8731 26.888 63.4891 27.32C63.2731 27.56 63.0691 27.68 62.8771 27.68C62.7811 27.68 62.7331 27.632 62.7331 27.536C62.7331 27.44 62.7931 27.32 62.9131 27.176C63.7531 26.096 64.4491 25.1 65.0011 24.188C65.5771 23.276 66.0091 22.592 66.2971 22.136C66.4891 21.8 66.8011 21.596 67.2331 21.524C67.6651 21.452 68.0371 21.428 68.3491 21.452C68.4451 21.452 68.5531 21.464 68.6731 21.488C68.7931 21.488 68.9731 21.488 69.2131 21.488C69.0691 21.776 68.8411 22.268 68.5291 22.964C68.2411 23.636 67.9411 24.368 67.6291 25.16C67.3171 25.928 67.0411 26.612 66.8011 27.212C66.5851 27.74 66.4051 28.268 66.2611 28.796C66.1411 29.324 66.0811 29.804 66.0811 30.236C66.0811 30.692 66.1651 31.064 66.3331 31.352C66.5011 31.64 66.7651 31.784 67.1251 31.784C67.6051 31.784 68.1571 31.592 68.7811 31.208C69.4051 30.824 70.0291 30.344 70.6531 29.768C71.3011 29.192 71.8891 28.604 72.4171 28.004C72.9691 27.38 73.4011 26.828 73.7131 26.348C73.8091 26.204 73.9171 26.132 74.0371 26.132C74.1571 26.132 74.2171 26.228 74.2171 26.42C74.2171 26.564 74.1691 26.696 74.0731 26.816C72.8251 28.52 71.6131 29.912 70.4371 30.992C69.2851 32.072 68.1091 32.612 66.9091 32.612ZM78.3217 44.42C77.6497 44.324 77.1817 44.012 76.9177 43.484C76.6537 42.98 76.5217 42.344 76.5217 41.576C76.5217 40.664 76.6537 39.644 76.9177 38.516C77.2057 37.412 77.5417 36.308 77.9257 35.204C78.3097 34.124 78.6697 33.152 79.0057 32.288C79.3657 31.448 79.6297 30.848 79.7977 30.488C79.3417 31.064 78.7777 31.52 78.1057 31.856C77.4337 32.168 76.7737 32.324 76.1257 32.324C75.3817 32.324 74.7217 32.072 74.1457 31.568C73.5937 31.04 73.3177 30.212 73.3177 29.084C73.3177 28.196 73.5577 27.104 74.0377 25.808C74.3017 25.208 74.6737 24.584 75.1537 23.936C75.6577 23.264 76.2577 22.7 76.9537 22.244C77.6737 21.764 78.4777 21.524 79.3657 21.524C80.3497 21.524 81.0337 21.704 81.4177 22.064C81.8257 22.4 82.0777 22.676 82.1737 22.892C82.1977 22.964 82.2097 23.048 82.2097 23.144C82.2097 23.288 82.1617 23.396 82.0657 23.468C81.9697 23.54 81.8617 23.576 81.7417 23.576C81.5497 23.576 81.4297 23.504 81.3817 23.36C81.2617 22.952 81.0697 22.676 80.8057 22.532C80.5657 22.364 80.3017 22.28 80.0137 22.28C79.7017 22.28 79.3777 22.364 79.0417 22.532C78.7057 22.676 78.4177 22.88 78.1777 23.144C77.9857 23.36 77.7337 23.732 77.4217 24.26C77.1337 24.764 76.8337 25.364 76.5217 26.06C76.2337 26.732 75.9817 27.404 75.7657 28.076C75.5737 28.748 75.4777 29.36 75.4777 29.912C75.4777 30.368 75.5737 30.752 75.7657 31.064C75.9577 31.352 76.2937 31.496 76.7737 31.496C77.3497 31.496 77.8777 31.28 78.3577 30.848C78.8617 30.416 79.3057 29.9 79.6897 29.3C80.0977 28.7 80.4097 28.16 80.6257 27.68C81.2017 26.504 81.7537 25.412 82.2817 24.404C82.8097 23.396 83.2297 22.556 83.5417 21.884C83.6377 21.716 83.8177 21.584 84.0817 21.488C84.3697 21.392 84.6577 21.344 84.9457 21.344C85.2097 21.344 85.4257 21.392 85.5937 21.488C85.7617 21.56 85.8457 21.692 85.8457 21.884C85.8457 22.004 85.8097 22.136 85.7377 22.28C85.5457 22.664 85.2937 23.18 84.9817 23.828C84.6697 24.452 84.3337 25.148 83.9737 25.916C83.6377 26.66 83.3017 27.404 82.9657 28.148C82.6297 28.868 82.3417 29.516 82.1017 30.092C82.0537 30.236 82.0297 30.368 82.0297 30.488C82.0297 30.728 82.1137 30.968 82.2817 31.208C82.4497 31.448 82.7377 31.568 83.1457 31.568C83.4097 31.568 83.7937 31.472 84.2977 31.28C84.9697 30.992 85.6777 30.56 86.4217 29.984C87.1897 29.384 87.9097 28.712 88.5817 27.968C89.2537 27.224 89.8057 26.516 90.2377 25.844C90.4537 25.532 90.6337 25.376 90.7777 25.376C90.8497 25.376 90.8857 25.424 90.8857 25.52C90.8857 25.712 90.7897 25.952 90.5977 26.24C90.2617 26.768 89.8177 27.368 89.2657 28.04C88.7137 28.712 88.1017 29.372 87.4297 30.02C86.7817 30.644 86.0977 31.184 85.3777 31.64C84.6817 32.096 83.9977 32.36 83.3257 32.432C83.2777 32.432 83.2177 32.432 83.1457 32.432C83.0977 32.456 83.0497 32.468 83.0017 32.468C82.6657 32.468 82.4017 32.42 82.2097 32.324C82.0417 32.228 81.9577 32.18 81.9577 32.18C82.1017 33.476 82.1737 34.64 82.1737 35.672C82.1737 36.992 82.0777 38.144 81.8857 39.128C81.6937 40.112 81.4537 40.988 81.1657 41.756C80.7817 42.788 80.3257 43.508 79.7977 43.916C79.2937 44.324 78.8017 44.492 78.3217 44.42ZM78.8977 43.376C79.2817 43.376 79.7017 42.704 80.1577 41.36C80.3257 40.928 80.4937 40.244 80.6617 39.308C80.8537 38.396 81.0097 37.412 81.1297 36.356C81.2737 35.3 81.3457 34.364 81.3457 33.548C81.3457 33.164 81.3217 32.816 81.2737 32.504C81.2497 32.216 81.1897 31.988 81.0937 31.82C80.6137 33.428 80.1697 34.916 79.7617 36.284C79.3777 37.652 79.0177 39.188 78.6817 40.892C78.6337 41.18 78.5857 41.444 78.5377 41.684C78.5137 41.924 78.5017 42.14 78.5017 42.332C78.5017 43.028 78.6337 43.376 78.8977 43.376Z" fill="white"/>
<path d="M137.684 35.708C136.844 35.708 136.088 35.396 135.416 34.772C134.744 34.148 134.468 33.188 134.588 31.892C134.684 30.884 134.936 29.768 135.344 28.544C135.776 27.32 136.292 26.048 136.892 24.728C137.516 23.408 138.152 22.1 138.8 20.804C139.064 20.3 139.4 19.664 139.808 18.896C140.216 18.104 140.636 17.276 141.068 16.412C141.524 15.524 141.92 14.684 142.256 13.892C142.784 12.62 143.048 11.684 143.048 11.084C143.048 10.484 142.808 10.184 142.328 10.184C141.896 10.184 141.332 10.424 140.636 10.904C139.94 11.36 139.304 11.888 138.728 12.488C137.792 13.424 136.784 14.6 135.704 16.016C134.624 17.432 133.544 18.98 132.464 20.66C131.408 22.316 130.424 24.02 129.512 25.772C128.624 27.5 127.904 29.156 127.352 30.74C127.256 31.052 127.076 31.292 126.812 31.46C126.548 31.628 126.284 31.712 126.02 31.712C125.732 31.712 125.48 31.628 125.264 31.46C125.048 31.268 124.94 30.98 124.94 30.596C124.94 30.26 125.192 29.42 125.696 28.076C126.2 26.732 126.824 25.04 127.568 23C128.048 21.632 128.468 20.408 128.828 19.328C129.212 18.224 129.524 17.264 129.764 16.448C129.956 15.848 130.088 15.332 130.16 14.9C130.232 14.468 130.268 14.096 130.268 13.784C130.268 13.064 130.04 12.704 129.584 12.704C129.272 12.704 128.888 12.86 128.432 13.172C127.976 13.484 127.496 13.868 126.992 14.324C126.512 14.78 126.068 15.224 125.66 15.656C124.652 16.736 123.692 17.984 122.78 19.4C121.868 20.792 121.028 22.244 120.26 23.756C119.492 25.268 118.796 26.744 118.172 28.184C117.572 29.624 117.056 30.92 116.624 32.072C116.384 32.072 116.048 32.12 115.616 32.216C115.208 32.336 114.812 32.468 114.428 32.612C114.044 32.756 113.768 32.876 113.6 32.972C114.176 31.604 114.74 30.26 115.292 28.94C115.868 27.596 116.396 26.192 116.876 24.728C117.356 23.288 117.764 21.788 118.1 20.228C118.436 18.644 118.652 17.012 118.748 15.332C118.844 13.652 118.7 12.308 118.316 11.3C117.932 10.292 117.428 9.56 116.804 9.104C116.18 8.648 115.52 8.42 114.824 8.42C113.912 8.42 113.084 8.768 112.34 9.464C111.596 10.136 111.224 11 111.224 12.056C111.224 12.608 111.428 13.1 111.836 13.532C112.244 13.94 112.796 14.204 113.492 14.324C113.78 14.348 113.924 14.444 113.924 14.612C113.924 14.852 113.744 14.948 113.384 14.9C112.424 14.804 111.716 14.432 111.26 13.784C110.804 13.136 110.576 12.428 110.576 11.66C110.576 10.772 110.804 10.016 111.26 9.392C111.74 8.744 112.352 8.252 113.096 7.916C113.864 7.556 114.656 7.376 115.472 7.376C116.408 7.376 117.308 7.616 118.172 8.096C119.06 8.576 119.78 9.332 120.332 10.364C120.884 11.396 121.16 12.752 121.16 14.432C121.16 15.224 121.1 16.088 120.98 17.024C120.86 17.96 120.704 18.884 120.512 19.796C120.344 20.708 120.176 21.512 120.008 22.208C120.44 21.536 120.956 20.744 121.556 19.832C122.18 18.92 122.864 17.984 123.608 17.024C124.352 16.064 125.108 15.176 125.876 14.36C126.644 13.544 127.388 12.908 128.108 12.452C128.828 11.948 129.572 11.696 130.34 11.696C130.892 11.696 131.36 11.876 131.744 12.236C132.152 12.596 132.356 13.148 132.356 13.892C132.356 14.66 132.236 15.548 131.996 16.556C131.756 17.564 131.468 18.572 131.132 19.58C130.796 20.564 130.484 21.452 130.196 22.244C130.628 21.62 131.156 20.864 131.78 19.976C132.404 19.088 133.088 18.164 133.832 17.204C134.576 16.22 135.332 15.26 136.1 14.324C136.892 13.388 137.66 12.548 138.404 11.804C139.148 11.036 139.832 10.436 140.456 10.004C140.864 9.74 141.32 9.524 141.824 9.356C142.328 9.164 142.82 9.068 143.3 9.068C143.9 9.068 144.404 9.224 144.812 9.536C145.244 9.848 145.46 10.376 145.46 11.12C145.46 11.216 145.46 11.312 145.46 11.408C145.46 11.504 145.448 11.612 145.424 11.732C145.352 12.308 145.124 13.052 144.74 13.964C144.38 14.852 143.948 15.8 143.444 16.808C142.94 17.792 142.448 18.728 141.968 19.616C141.488 20.504 141.104 21.224 140.816 21.776C140.096 23.144 139.388 24.488 138.692 25.808C138.02 27.128 137.456 28.352 137 29.48C136.544 30.608 136.268 31.556 136.172 32.324C136.148 32.42 136.136 32.516 136.136 32.612C136.136 32.732 136.136 32.852 136.136 32.972C136.136 33.692 136.292 34.196 136.604 34.484C136.94 34.796 137.324 34.952 137.756 34.952C138.236 34.952 138.704 34.784 139.16 34.448C139.64 34.112 139.928 33.704 140.024 33.224C140.048 32.84 140.18 32.648 140.42 32.648C140.66 32.648 140.78 32.828 140.78 33.188C140.78 33.212 140.78 33.248 140.78 33.296C140.78 33.368 140.768 33.44 140.744 33.512C140.552 34.232 140.156 34.772 139.556 35.132C138.98 35.516 138.356 35.708 137.684 35.708ZM152.095 32.216C151.423 32.216 150.943 31.952 150.655 31.424C150.367 30.896 150.223 30.284 150.223 29.588C150.223 29.468 150.223 29.336 150.223 29.192C150.223 29.048 150.235 28.916 150.259 28.796C149.803 29.612 149.215 30.38 148.495 31.1C147.775 31.82 146.887 32.18 145.831 32.18C145.111 32.18 144.499 31.916 143.995 31.388C143.515 30.86 143.275 30.056 143.275 28.976C143.275 28.112 143.515 27.032 143.995 25.736C144.259 25.112 144.643 24.476 145.147 23.828C145.651 23.18 146.263 22.64 146.983 22.208C147.703 21.752 148.507 21.524 149.395 21.524C150.355 21.524 151.027 21.704 151.411 22.064C151.795 22.424 152.035 22.7 152.131 22.892C152.131 22.916 152.131 22.94 152.131 22.964C152.155 22.964 152.167 22.976 152.167 23C152.167 23.216 152.035 23.324 151.771 23.324C151.651 23.324 151.531 23.264 151.411 23.144C151.123 22.808 150.835 22.568 150.547 22.424C150.259 22.28 149.983 22.208 149.719 22.208C149.167 22.208 148.651 22.448 148.171 22.928C147.691 23.384 147.259 23.936 146.875 24.584C146.515 25.208 146.215 25.796 145.975 26.348C145.639 27.116 145.387 27.812 145.219 28.436C145.075 29.036 145.003 29.54 145.003 29.948C145.003 31.028 145.375 31.568 146.119 31.568C146.647 31.568 147.271 31.232 147.991 30.56C148.711 29.888 149.395 28.892 150.043 27.572C150.619 26.42 151.135 25.4 151.591 24.512C152.047 23.6 152.443 22.808 152.779 22.136C152.851 21.968 153.031 21.848 153.319 21.776C153.607 21.68 153.895 21.632 154.183 21.632C154.447 21.632 154.687 21.68 154.903 21.776C155.119 21.848 155.227 21.98 155.227 22.172C155.227 22.268 155.167 22.4 155.047 22.568C154.759 22.976 154.387 23.576 153.931 24.368C153.499 25.16 153.091 25.988 152.707 26.852C152.347 27.716 152.107 28.484 151.987 29.156C151.915 29.516 151.879 29.84 151.879 30.128C151.879 30.896 152.143 31.28 152.671 31.28C152.839 31.28 153.103 31.22 153.463 31.1C154.135 30.812 154.819 30.368 155.515 29.768C156.235 29.144 156.907 28.46 157.531 27.716C158.179 26.972 158.719 26.276 159.151 25.628C159.367 25.316 159.535 25.16 159.655 25.16C159.727 25.16 159.763 25.22 159.763 25.34C159.763 25.532 159.667 25.772 159.475 26.06C159.043 26.708 158.491 27.428 157.819 28.22C157.171 29.012 156.463 29.744 155.695 30.416C154.951 31.088 154.219 31.58 153.499 31.892C152.971 32.108 152.503 32.216 152.095 32.216ZM157.748 43.448C157.1 43.448 156.548 43.304 156.092 43.016C155.636 42.728 155.408 42.296 155.408 41.72C155.408 41.384 155.504 41 155.696 40.568C155.888 40.16 156.2 39.692 156.632 39.164C157.304 38.372 158.12 37.64 159.08 36.968C160.064 36.32 161.084 35.696 162.14 35.096C163.196 34.496 164.168 33.932 165.056 33.404C165.176 32.708 165.32 32.036 165.488 31.388C165.656 30.74 165.824 30.104 165.992 29.48C165.512 30.272 164.924 30.98 164.228 31.604C163.556 32.228 162.812 32.54 161.996 32.54C161.276 32.54 160.652 32.252 160.124 31.676C159.62 31.076 159.368 30.26 159.368 29.228C159.368 28.94 159.392 28.64 159.44 28.328C159.488 27.992 159.56 27.656 159.656 27.32C159.776 26.936 159.92 26.492 160.088 25.988C160.256 25.46 160.412 25.004 160.556 24.62C160.244 25.076 159.92 25.52 159.584 25.952C159.272 26.384 158.948 26.804 158.612 27.212C158.372 27.524 158.156 27.68 157.964 27.68C157.868 27.68 157.82 27.632 157.82 27.536C157.82 27.44 157.88 27.32 158 27.176C158.84 26.096 159.536 25.1 160.088 24.188C160.64 23.276 161.06 22.592 161.348 22.136C161.492 21.872 161.696 21.704 161.96 21.632C162.248 21.56 162.548 21.524 162.86 21.524C163.076 21.524 163.28 21.536 163.472 21.56C163.688 21.56 163.88 21.56 164.048 21.56C163.928 21.944 163.736 22.448 163.472 23.072C163.232 23.696 162.968 24.356 162.68 25.052C162.392 25.748 162.14 26.408 161.924 27.032C161.708 27.656 161.54 28.244 161.42 28.796C161.3 29.348 161.24 29.84 161.24 30.272C161.24 31.28 161.564 31.784 162.212 31.784C162.62 31.784 163.1 31.532 163.652 31.028C164.228 30.5 164.78 29.816 165.308 28.976C165.86 28.136 166.304 27.26 166.64 26.348C166.688 26.252 166.772 26.024 166.892 25.664C167.012 25.304 167.144 24.908 167.288 24.476C167.432 24.02 167.564 23.612 167.684 23.252C167.804 22.868 167.876 22.628 167.9 22.532C168.164 22.052 168.584 21.776 169.16 21.704C169.76 21.608 170.336 21.56 170.888 21.56C170.648 21.92 170.372 22.496 170.06 23.288C169.772 24.08 169.472 25.004 169.16 26.06C168.848 27.092 168.536 28.172 168.224 29.3C167.936 30.428 167.672 31.52 167.432 32.576C168.032 32.24 168.68 31.832 169.376 31.352C170.072 30.848 170.84 30.176 171.68 29.336C172.52 28.472 173.42 27.356 174.38 25.988C174.452 25.892 174.548 25.844 174.668 25.844C174.812 25.844 174.884 25.916 174.884 26.06C174.884 26.132 174.848 26.24 174.776 26.384C173.792 27.872 172.652 29.252 171.356 30.524C170.06 31.772 168.668 32.888 167.18 33.872C166.868 35.264 166.412 36.476 165.812 37.508C165.212 38.54 164.54 39.416 163.796 40.136C163.076 40.88 162.356 41.48 161.636 41.936C160.916 42.392 160.28 42.752 159.728 43.016C159.08 43.304 158.42 43.448 157.748 43.448ZM157.28 42.548C157.88 42.548 158.444 42.38 158.972 42.044C160.172 41.324 161.252 40.364 162.212 39.164C163.196 37.964 164.048 36.452 164.768 34.628C163.976 35.06 163.1 35.54 162.14 36.068C161.18 36.596 160.256 37.16 159.368 37.76C158.504 38.36 157.784 39.02 157.208 39.74C156.824 40.196 156.56 40.58 156.416 40.892C156.248 41.228 156.164 41.504 156.164 41.72C156.164 42.008 156.272 42.212 156.488 42.332C156.704 42.476 156.968 42.548 157.28 42.548Z" fill="white"/>
<path opacity="0.2" d="M99.272 35.376C97.9067 35.376 96.7653 35.12 95.848 34.608C94.952 34.1173 94.28 33.4773 93.832 32.688C93.4053 31.8773 93.192 31.0453 93.192 30.192C93.192 29.7013 93.256 29.2213 93.384 28.752C93.7893 27.3013 94.6107 26.032 95.848 24.944C97.1067 23.856 98.7387 23.184 100.744 22.928C100.381 22.5013 100.168 22 100.104 21.424C99.0587 21.0613 98.3013 20.6027 97.832 20.048C97.3627 19.472 97.128 18.8853 97.128 18.288C97.128 17.6053 97.416 17.008 97.992 16.496C98.5893 15.984 99.4213 15.728 100.488 15.728C100.659 15.728 100.819 15.728 100.968 15.728C101.139 15.728 101.299 15.7493 101.448 15.792C101.576 15.8133 101.64 15.8773 101.64 15.984C101.64 16.112 101.555 16.176 101.384 16.176C101.256 16.176 101.128 16.1653 101 16.144C100.872 16.1227 100.744 16.112 100.616 16.112C99.8267 16.112 99.208 16.3147 98.76 16.72C98.3333 17.104 98.12 17.5733 98.12 18.128C98.12 18.5547 98.28 18.992 98.6 19.44C98.92 19.8667 99.432 20.24 100.136 20.56C100.285 19.7493 100.648 19.0773 101.224 18.544C101.821 18.0107 102.515 17.616 103.304 17.36C104.115 17.0827 104.915 16.944 105.704 16.944C106.621 16.944 107.411 17.1253 108.072 17.488C108.733 17.8293 109.064 18.3413 109.064 19.024C109.064 19.7707 108.776 20.3573 108.2 20.784C107.645 21.1893 106.941 21.4773 106.088 21.648C105.256 21.7973 104.413 21.872 103.56 21.872C103.155 21.872 102.749 21.8613 102.344 21.84C101.96 21.7973 101.619 21.7547 101.32 21.712C101.341 21.968 101.373 22.192 101.416 22.384C101.48 22.5547 101.555 22.7147 101.64 22.864C101.832 22.864 102.024 22.864 102.216 22.864C102.429 22.8427 102.632 22.832 102.824 22.832C103.336 22.832 103.848 22.864 104.36 22.928C104.744 22.9707 105.021 23.0773 105.192 23.248C105.363 23.4187 105.448 23.5893 105.448 23.76C105.448 23.9733 105.341 24.1547 105.128 24.304C104.936 24.4533 104.659 24.528 104.296 24.528C103.848 24.528 103.379 24.4533 102.888 24.304C102.397 24.1547 101.939 23.9307 101.512 23.632C100.68 23.7813 99.8587 24.0587 99.048 24.464C98.2587 24.848 97.5547 25.392 96.936 26.096C96.3387 26.8 95.8907 27.7173 95.592 28.848C95.464 29.3813 95.4 29.9147 95.4 30.448C95.4 31.216 95.5493 31.9413 95.848 32.624C96.168 33.2853 96.6373 33.8187 97.256 34.224C97.896 34.6293 98.696 34.832 99.656 34.832C100.744 34.832 101.757 34.5973 102.696 34.128C103.656 33.68 104.456 33.104 105.096 32.4C105.757 31.696 106.184 30.96 106.376 30.192C106.419 30.0213 106.451 29.8507 106.472 29.68C106.493 29.5093 106.504 29.3493 106.504 29.2C106.504 28.4533 106.259 27.9093 105.768 27.568C105.299 27.2053 104.755 27.024 104.136 27.024C103.496 27.024 102.856 27.1947 102.216 27.536C101.576 27.8773 101.107 28.368 100.808 29.008C100.723 29.1787 100.648 29.4027 100.584 29.68C100.52 29.9573 100.488 30.2453 100.488 30.544C100.488 30.928 100.563 31.2693 100.712 31.568C100.861 31.8667 101.128 32.016 101.512 32.016C101.725 32.016 101.896 31.9627 102.024 31.856C102.067 31.8133 102.131 31.792 102.216 31.792C102.365 31.792 102.44 31.8667 102.44 32.016C102.44 32.144 102.355 32.2507 102.184 32.336C102.013 32.4427 101.789 32.496 101.512 32.496C100.872 32.496 100.403 32.2507 100.104 31.76C99.8267 31.2693 99.688 30.768 99.688 30.256C99.688 29.552 99.8907 28.9227 100.296 28.368C100.723 27.8133 101.267 27.3227 101.928 26.896C102.589 26.4693 103.304 26.096 104.072 25.776C104.84 25.4347 105.587 25.136 106.312 24.88C107.059 24.624 107.699 24.3893 108.232 24.176C109.768 23.5573 110.845 22.864 111.464 22.096C112.083 21.3067 112.392 20.624 112.392 20.048C112.392 19.728 112.307 19.4613 112.136 19.248C111.987 19.0347 111.763 18.928 111.464 18.928C111.336 18.928 111.144 18.9813 110.888 19.088C110.845 19.1093 110.781 19.1307 110.696 19.152C110.632 19.1733 110.568 19.184 110.504 19.184C110.333 19.184 110.248 19.1093 110.248 18.96C110.248 18.7893 110.333 18.6613 110.504 18.576C110.696 18.4907 110.92 18.448 111.176 18.448C111.624 18.448 112.083 18.608 112.552 18.928C113.043 19.248 113.288 19.792 113.288 20.56C113.288 21.2213 112.957 21.9467 112.296 22.736C111.635 23.504 110.483 24.2187 108.84 24.88C108.627 24.9653 108.264 25.0827 107.752 25.232C107.261 25.36 106.728 25.5093 106.152 25.68C105.597 25.8293 105.107 25.9893 104.68 26.16C105.256 26.096 105.811 26.2027 106.344 26.48C106.877 26.7573 107.315 27.152 107.656 27.664C108.019 28.1547 108.2 28.7307 108.2 29.392C108.2 29.5413 108.189 29.6907 108.168 29.84C108.147 29.9893 108.115 30.1387 108.072 30.288C107.795 31.3333 107.187 32.24 106.248 33.008C105.331 33.7547 104.253 34.3307 103.016 34.736C101.779 35.1627 100.531 35.376 99.272 35.376ZM103.688 21.168C104.349 21.168 104.989 21.104 105.608 20.976C106.227 20.848 106.739 20.6453 107.144 20.368C107.549 20.0693 107.752 19.6747 107.752 19.184C107.752 18.6293 107.517 18.1707 107.048 17.808C106.579 17.4453 105.832 17.3173 104.808 17.424C103.933 17.5093 103.165 17.8933 102.504 18.576C101.864 19.2373 101.491 20.0267 101.384 20.944C101.725 21.008 102.088 21.0613 102.472 21.104C102.877 21.1467 103.283 21.168 103.688 21.168ZM103.752 23.952H103.944C104.349 23.952 104.552 23.8987 104.552 23.792C104.552 23.6213 104.307 23.5147 103.816 23.472C103.731 23.4507 103.645 23.44 103.56 23.44C103.496 23.44 103.421 23.44 103.336 23.44C103.187 23.44 103.027 23.4507 102.856 23.472C102.685 23.472 102.536 23.4827 102.408 23.504C102.557 23.5893 102.781 23.6853 103.08 23.792C103.379 23.8773 103.603 23.9307 103.752 23.952Z" fill="white"/>
</svg>
