<?xml version="1.0" ?><svg id="Layer_1" style="enable-background:new 0 0 100 100;" version="1.1" viewBox="0 0 100 100" xml:space="preserve" xmlns="http://www.w3.org/2000/svg" xmlns:xlink="http://www.w3.org/1999/xlink"><g><g><path d="M19.1,27.2c4.7,0,8.6-3.9,8.6-8.6S23.9,10,19.1,10c-4.7,0-8.6,3.9-8.6,8.6S14.4,27.2,19.1,27.2z M19.1,13    c3.1,0,5.6,2.5,5.6,5.6s-2.5,5.6-5.6,5.6c-3.1,0-5.6-2.5-5.6-5.6S16,13,19.1,13z"/><path d="M33.2,59.5V42.7c0-7.6-6.1-13.7-13.7-13.7S5.8,35.1,5.8,42.7v16.9c0,2.2,1.8,4,4,4c0.5,0,1,0.4,1,1v16.7    c0,4.8,3.9,8.8,8.8,8.8c4.8,0,8.8-3.9,8.8-8.8V64.5c0-0.5,0.4-1,1-1C31.4,63.5,33.2,61.7,33.2,59.5z M30.2,59.5c0,0.5-0.4,1-1,1    c-2.2,0-4,1.8-4,4v16.7c0,3.2-2.6,5.8-5.8,5.8c-3.2,0-5.8-2.6-5.8-5.8V64.5c0-2.2-1.8-4-4-4c-0.5,0-1-0.4-1-1V42.7    c0-5.9,4.8-10.7,10.7-10.7s10.7,4.8,10.7,10.7V59.5z"/></g><g><path d="M80.1,27.2c4.7,0,8.6-3.9,8.6-8.6S84.8,10,80.1,10c-4.7,0-8.6,3.9-8.6,8.6S75.3,27.2,80.1,27.2z M80.1,13    c3.1,0,5.6,2.5,5.6,5.6s-2.5,5.6-5.6,5.6c-3.1,0-5.6-2.5-5.6-5.6S77,13,80.1,13z"/><path d="M80.5,29c-7.6,0-13.7,6.1-13.7,13.7v16.9c0,2.2,1.8,4,4,4c0.5,0,1,0.4,1,1v16.7c0,4.8,3.9,8.8,8.8,8.8    c4.8,0,8.8-3.9,8.8-8.8V64.5c0-0.5,0.4-1,1-1c2.2,0,4-1.8,4-4V42.7C94.2,35.1,88,29,80.5,29z M91.2,59.5c0,0.5-0.4,1-1,1    c-2.2,0-4,1.8-4,4v16.7c0,3.2-2.6,5.8-5.8,5.8c-3.2,0-5.8-2.6-5.8-5.8V64.5c0-2.2-1.8-4-4-4c-0.5,0-1-0.4-1-1V42.7    c0-5.9,4.8-10.7,10.7-10.7s10.7,4.8,10.7,10.7V59.5z"/></g><g><path d="M37,87h-4c-0.8,0-1.5,0.7-1.5,1.5c0,0.8,0.7,1.5,1.5,1.5h4c0.8,0,1.5-0.7,1.5-1.5C38.5,87.7,37.8,87,37,87z"/><path d="M47,87h-4c-0.8,0-1.5,0.7-1.5,1.5c0,0.8,0.7,1.5,1.5,1.5h4c0.8,0,1.5-0.7,1.5-1.5C48.5,87.7,47.8,87,47,87z"/><path d="M67,87h-4c-0.8,0-1.5,0.7-1.5,1.5c0,0.8,0.7,1.5,1.5,1.5h4c0.8,0,1.5-0.7,1.5-1.5C68.5,87.7,67.8,87,67,87z"/><path d="M57,87h-4c-0.8,0-1.5,0.7-1.5,1.5c0,0.8,0.7,1.5,1.5,1.5h4c0.8,0,1.5-0.7,1.5-1.5C58.5,87.7,57.8,87,57,87z"/></g></g></svg>