<?xml version="1.0" ?>
<svg data-name="Layer 2" id="Layer_2" viewBox="0 0 250 250"
  xmlns="http://www.w3.org/2000/svg">
  <title/>
  <path fill="#676B70" d="M98.38,128H18.5a3,3,0,0,1-2.12-5.12L69.63,69.63a3,3,0,0,1,2.12-.88H125a3,3,0,0,1,3,3V98.38a3,3,0,0,1-.15.94l-6.66,20a3,3,0,0,1-1.9,1.9l-20,6.66A3,3,0,0,1,98.38,128Zm-72.64-6H97.89L116,116l6-18.08V74.75H73Z"/>
  <path fill="#676B70" d="M125,234.5a3,3,0,0,1-2.12-.88L69.63,180.37a3,3,0,0,1-.88-2.12V125a3,3,0,0,1,3-3H98.38a3,3,0,0,1,.94.15l20,6.66a3,3,0,0,1,1.9,1.9l6.66,20a3,3,0,0,1,.15.95V231.5a3,3,0,0,1-1.85,2.77A2.88,2.88,0,0,1,125,234.5ZM74.75,177,122,224.26V152.11L116,134l-18.08-6H74.75Z"/>
  <path fill="#676B70" d="M178.25,181.25H125a3,3,0,0,1-3-3V151.63a3,3,0,0,1,.15-.95l6.66-20a3,3,0,0,1,1.9-1.9l20-6.66a3,3,0,0,1,.95-.15H231.5a3,3,0,0,1,2.12,5.12l-53.25,53.25A3,3,0,0,1,178.25,181.25Zm-50.25-6h49L224.26,128H152.11L134,134l-6,18.08Z"/>
  <path fill="#676B70" d="M178.25,128H151.63a3,3,0,0,1-.95-.15l-20-6.66a3,3,0,0,1-1.9-1.9l-6.66-20a3,3,0,0,1-.15-.94V18.5a3,3,0,0,1,5.12-2.12l53.25,53.25a3,3,0,0,1,.88,2.12V125A3,3,0,0,1,178.25,128Zm-26.14-6h23.14V73L128,25.74V97.89L134,116Z"/>
</svg>