<?xml version="1.0" ?><svg enable-background="new 0 0 24 24" id="Layer_1" version="1.1" viewBox="0 0 24 24" xml:space="preserve" xmlns="http://www.w3.org/2000/svg" xmlns:xlink="http://www.w3.org/1999/xlink"><g><line fill="none" stroke="white" stroke-linecap="round" stroke-linejoin="round" stroke-miterlimit="10" x1="11.9963465" x2="12" y1="7.5" y2="22.5"/><path d="M12,22.5   c2.9978867-0.0177937,9.5-2,10.5-11c-3,0-10.5,2.5-10.5,10" fill="none" stroke="white" stroke-linecap="round" stroke-linejoin="round" stroke-miterlimit="10"/><path d="M12,22.5   c-2.9978867-0.0177937-9.5-2-10.5-11c3,0,10.5,2.5,10.5,10" fill="none" stroke="white" stroke-linecap="round" stroke-linejoin="round" stroke-miterlimit="10"/><path d="M12,7.5   c-0.0004549-4.5-5.5-4-5.5-4c0.4670844,0.7011213,0.7160015,2.713098,0.8486528,4.6573277   C7.5154824,10.6024904,9.5454988,12.5,11.9963465,12.5h0.0073071c2.4508476,0,4.4808645-1.8975096,4.6476927-4.3426723   C16.7839985,6.213098,17.0329151,4.2011213,17.5,3.5C17.5,3.5,11.9995451,3,12,7.5z" fill="none" stroke="white" stroke-linecap="round" stroke-linejoin="round" stroke-miterlimit="10"/><polyline fill="none" points="   9.2873945,3.8250902 12,1.5 14.7942514,3.7985659  " stroke="white" stroke-linecap="round" stroke-linejoin="round" stroke-miterlimit="10"/></g><g/><g/><g/><g/><g/><g/><g/><g/><g/><g/><g/><g/><g/><g/><g/></svg>