<?xml version="1.0" ?><svg viewBox="0 0 64 64" xmlns="http://www.w3.org/2000/svg"><g id="Outline"><g data-name="Outline" id="Outline-2"><path d="M16,42a9,9,0,0,0,15,6.69A9,9,0,1,0,41.38,34.15l1.56-4.42a1,1,0,0,0,0-.79l-1.76-3.4a1,1,0,0,0-.89-.54H33.76a1,1,0,0,0-.89.54l-1.76,3.4a1,1,0,0,0-.05.79l1.56,4.42A8.52,8.52,0,0,0,31,35.31,9,9,0,0,0,16,42Zm16,0a7,7,0,0,1-1,3.59,6.94,6.94,0,0,1,0-7.18A7,7,0,0,1,32,42Zm12,0a7,7,0,0,1-11.67,5.2,8.93,8.93,0,0,0,0-10.4,7.18,7.18,0,0,1,1.92-1.24,7.09,7.09,0,0,1,5.5,0A7,7,0,0,1,44,42ZM34.37,27h5.26l.73,1.4H33.64Zm.09,6.37-1.05-3h7.18l-1.05,3A9.14,9.14,0,0,0,34.46,33.37ZM25,35a7,7,0,0,1,4.67,1.8,8.93,8.93,0,0,0,0,10.4A7,7,0,1,1,25,35Z"/><path d="M26,31a1,1,0,0,0,1-1V26.67a2.67,2.67,0,0,0-5.19-.86A2.67,2.67,0,0,0,22.67,31Zm-4-2.67a.67.67,0,0,1,.67-.66,1,1,0,0,0,1-1,.67.67,0,1,1,1.33,0V29H22.67A.67.67,0,0,1,22,28.33Z"/><path d="M54,6H51V5.5a3.5,3.5,0,0,0-7,0V6H35.5V5.5a3.5,3.5,0,0,0-7,0V6H20V5.5a3.5,3.5,0,0,0-7,0V6H10a5,5,0,0,0-5,5V42a1,1,0,0,0,2,0V20H57V44a1,1,0,0,1-1,1H51a5,5,0,0,0-5,5v5a1,1,0,0,1-1,1l-35-.06a3,3,0,0,1-3-3V50a1,1,0,0,0-2,0v7a5,5,0,0,0,5,5H54a5,5,0,0,0,5-5V11A5,5,0,0,0,54,6Zm-8-.5a1.5,1.5,0,0,1,3,0v4a1.5,1.5,0,0,1-3,0Zm-15.5,0a1.5,1.5,0,0,1,3,0v4a1.5,1.5,0,0,1-3,0ZM15,5.5a1.5,1.5,0,0,1,3,0v4a1.5,1.5,0,0,1-3,0ZM7,18V11a3,3,0,0,1,3-3h3V9.5a3.5,3.5,0,0,0,7,0V8h8.5V9.5a3.5,3.5,0,0,0,7,0V8H44V9.5a3.5,3.5,0,0,0,7,0V8h3a3,3,0,0,1,3,3v7ZM48,50a3,3,0,0,1,3-3h4.59L48,54.59Zm6,10H10a3,3,0,0,1-3-3.09,4.9,4.9,0,0,0,3,1L45.33,58a5,5,0,0,0,3.55-1.47L57,48.42V57A3,3,0,0,1,54,60Z"/><circle cx="6" cy="46" r="1"/></g></g></svg>