<?xml version="1.0" ?><svg data-name="Layer 1" id="Layer_1" viewBox="0 0 128 128" xmlns="http://www.w3.org/2000/svg"><title/><path d="M103.4,67.89a1,1,0,0,0,.46.11,1,1,0,0,0,.47-1.88A30,30,0,0,1,88.7,33.81a1,1,0,1,0-2-.37A32,32,0,0,0,103.4,67.89Z"/><path d="M105.77,63.68H106a1,1,0,0,0,.79-1.18l-.91-4.61a1,1,0,0,0-1.17-.79,1,1,0,0,0-.79,1.18l.91,4.61A1,1,0,0,0,105.77,63.68Z"/><path d="M102.52,76a1,1,0,0,0-1.33.47l-2,4.23A1,1,0,0,0,99.6,82a1,1,0,0,0,.44.1,1,1,0,0,0,.9-.56l2-4.23A1,1,0,0,0,102.52,76Z"/><path d="M105.93,75.44a1,1,0,0,0-1.15.83l-1.9,11.65a1,1,0,0,0,.82,1.15l.16,0a1,1,0,0,0,1-.84l1.91-11.66A1,1,0,0,0,105.93,75.44Z"/><path d="M23.25,67.47a1,1,0,0,0,.89.53,1,1,0,0,0,.46-.11A32,32,0,0,0,41.27,33.44a1,1,0,0,0-2,.37A30,30,0,0,1,23.67,66.12,1,1,0,0,0,23.25,67.47Z"/><path d="M22,63.67h.19a1,1,0,0,0,1-.8l.91-4.61a1,1,0,0,0-.79-1.18,1,1,0,0,0-1.17.79l-.91,4.61A1,1,0,0,0,22,63.67Z"/><path d="M26.81,76.47A1,1,0,0,0,25.48,76,1,1,0,0,0,25,77.34l2,4.23a1,1,0,0,0,.9.56A1.12,1.12,0,0,0,28.4,82a1,1,0,0,0,.46-1.34Z"/><path d="M22.07,75.44a1,1,0,0,0-.83,1.15l1.91,11.66a1,1,0,0,0,1,.84l.16,0a1,1,0,0,0,.82-1.15l-1.9-11.65A1,1,0,0,0,22.07,75.44Z"/><path d="M7.11,107a1,1,0,0,0,1,1h44a1,1,0,0,0,0-2H42.66C42.47,92.11,36.86,78.43,29,72.51A42.06,42.06,0,0,0,59.82,33.77c2,1.46,3.48,2.42,3.65,2.52a1,1,0,0,0,1.06,0c.17-.1,1.7-1.06,3.65-2.52A42.06,42.06,0,0,0,99,72.51c-6.74,5.07-11.83,15.85-13.27,27.6H71.32a1,1,0,0,0,0,2H85.53c-.11,1.31-.17,2.62-.19,3.93H75.89a1,1,0,0,0,0,2h44a1,1,0,0,0,0-2h-8.77V48.93A27.55,27.55,0,0,0,83.61,21.41H77.25A7.44,7.44,0,0,0,70,14a7.15,7.15,0,0,0-6,3.4A7.15,7.15,0,0,0,58,14a7.44,7.44,0,0,0-7.23,7.37H44.39A27.55,27.55,0,0,0,16.88,48.93V106H8.11A1,1,0,0,0,7.11,107Zm80.23-1c.19-14,6-27.66,13.93-32.69a1.05,1.05,0,0,0,.24-.23,41.44,41.44,0,0,0,7.61.87V106Zm21.78-57.11V72a40,40,0,0,1-39-39.77c3-2.47,6.17-5.73,6.92-8.81h6.55A25.54,25.54,0,0,1,109.12,48.93ZM58,16A5.32,5.32,0,0,1,63,20.2a1,1,0,0,0,1.94,0A5.32,5.32,0,0,1,70,16a5.45,5.45,0,0,1,5.24,5.63s0,.23,0,.3,0,.32,0,.39C74.85,26.44,67.44,32,64,34.26,60.56,32,53.15,26.44,52.78,22.35c0-.06,0-.34,0-.4v-.27A5.46,5.46,0,0,1,58,16ZM44.39,23.41h6.55c.76,3.09,4,6.34,6.92,8.81A40,40,0,0,1,18.88,72V48.93A25.54,25.54,0,0,1,44.39,23.41ZM18.88,74a41.44,41.44,0,0,0,7.61-.87,1.05,1.05,0,0,0,.24.23C34.67,78.38,40.47,92,40.66,106H18.88Z"/><path d="M28.94,112a1,1,0,0,0,0,2H49.27a1,1,0,0,0,0-2Z"/></svg>